# xmcd
#
# Track frame offsets:
# 150
# 17262
# 34478
# 55999
#
# Disc length: 1503 seconds
#
# Revision: 0
# Processed by: cddbd v1.5.1PL0 Copyright (c) Steve Scherf et al.
# Submitted via: plextools 2.11
#
DISCID=2a05dd04
DTITLE=GLAY - 天使のわけまえ／ピーク果てしなく ソウル限りなく
DYEAR=2004
DGENRE=JPop
TTITLE0=天使のわけまえ
TTITLE1=ピーク果てしなく ソウル限りなく
TTITLE2=BEUTIFUL DREAMER  Live from X-RATED TOKYO BAY NK HALL 2004.3.15
TTITLE3=時の雫 〜Overture  Live from X-RATED TOKYO BAY NK HALL 2004.3.15
EXTD=
EXTT0=
EXTT1=
EXTT2=
EXTT3=
PLAYORDER=
